<?xml version="1.0" encoding="UTF-8"?> <svg xmlns="http://www.w3.org/2000/svg" viewBox="0 0 540 540"><defs><style>.cls-1{fill:#acc4d7;}.cls-2{fill:#fff;}.cls-3{fill:#d3d1d0;}.cls-4{fill:#b6b2b0;}.cls-5{fill:#ba3038;}.cls-6{fill:#faa919;}.cls-7{fill:#278542;}.cls-8{fill:#c85a60;}.cls-9{fill:#d58287;}.cls-10{fill:#978ab2;}.cls-11{fill:#f9b948;}.cls-12{fill:#183059;}</style></defs><g id="BG"><rect class="cls-1" width="540" height="540"></rect></g><g id="Illos"><path class="cls-2" d="M354,97.5H184.66a31.74,31.74,0,0,0-31.75,31.75v319.3a31.74,31.74,0,0,0,31.75,31.75H354a31.75,31.75,0,0,0,31.76-31.75V129.25A31.75,31.75,0,0,0,354,97.5ZM269.34,459.13a15.88,15.88,0,1,1,15.87-15.87A15.87,15.87,0,0,1,269.34,459.13Zm105.84-58.21a5.29,5.29,0,0,1-5.29,5.29H168.78a5.29,5.29,0,0,1-5.29-5.29V134.54a5.29,5.29,0,0,1,5.29-5.29H369.89a5.29,5.29,0,0,1,5.29,5.29Z"></path><rect class="cls-2" x="222.49" y="29.38" width="103.97" height="11.26"></rect><rect class="cls-2" x="219.74" y="127.42" width="103.97" height="11.26"></rect><rect class="cls-2" x="220.87" y="225.59" width="103.97" height="11.26"></rect><rect class="cls-3" x="214.06" y="-4.22" width="10.73" height="410.45"></rect><rect class="cls-3" x="323.33" y="-4.22" width="10.65" height="410.45"></rect><path class="cls-4" d="M322.59,313.49h-97a.77.77,0,0,1-.73-.53v12.88a2,2,0,0,1,2-1.61h94.56a2,2,0,0,1,2,1.78V312.9A.76.76,0,0,1,322.59,313.49Z"></path><path class="cls-4" d="M322.58,19h-97a.77.77,0,0,1-.73-.53V31.37a2,2,0,0,1,2-1.61h94.59a2,2,0,0,1,1.95,1.59V18.42A.76.76,0,0,1,322.58,19Z"></path><path class="cls-4" d="M322.57,215.34h-97a.77.77,0,0,1-.73-.53v12.87a2,2,0,0,1,2-1.61h94.57a2,2,0,0,1,2,1.71v-13.1A.77.77,0,0,1,322.57,215.34Z"></path><path class="cls-4" d="M322.61,117.19H225.56a.77.77,0,0,1-.73-.54v12.88a2,2,0,0,1,2-1.61h94.56a2,2,0,0,1,2,1.81V116.67A.76.76,0,0,1,322.61,117.19Z"></path><circle class="cls-5" cx="231.62" cy="133.21" r="2.39"></circle><circle class="cls-6" cx="238.63" cy="133.21" r="2.39"></circle><circle class="cls-7" cx="245.63" cy="133.22" r="2.39"></circle><circle class="cls-5" cx="231.62" cy="232.13" r="2.39"></circle><circle class="cls-6" cx="238.63" cy="232.13" r="2.39"></circle><circle class="cls-7" cx="245.63" cy="232.14" r="2.39"></circle><circle class="cls-5" cx="231.62" cy="35.2" r="2.39"></circle><circle class="cls-6" cx="238.63" cy="35.21" r="2.39"></circle><circle class="cls-7" cx="245.63" cy="35.22" r="2.39"></circle><polygon class="cls-8" points="338.75 378.29 335.44 320.25 323.88 320.25 321 376.43 338.75 378.29"></polygon><path class="cls-8" d="M342,301.43a3.81,3.81,0,0,0-.79-3.28,1.57,1.57,0,0,1-.35-.85l-.1-.88a2.37,2.37,0,0,0-1.09-2.16l-.42-.19h0a3.37,3.37,0,0,1-2.22-3.78l.1-.53a3,3,0,0,0-3.1-3.5l-3.88,10a17.3,17.3,0,0,1-.94,2c-1.64,3-6.26,10.86-5.82,4.4s-.58-9.12-1.62-10.2a1.13,1.13,0,0,0-1.93.65l-1.32,10.53-.27,2.93a13.81,13.81,0,0,0,.84,6.14l4.25,11.78.88,12.34,12.46,5-.9-17.64a5.59,5.59,0,0,1,.38-2.39l5.72-14.5a4.08,4.08,0,0,0-.24-2.82,1.16,1.16,0,0,1-.09-.73Z"></path><path class="cls-9" d="M217.74,247.15a14.76,14.76,0,0,1-.84-5l2.59-60.13.23-1.37,6-11.12a13.69,13.69,0,0,0,1.62-6l.11-2.94.05-10.62a1.13,1.13,0,0,0-1.84-.89c-1.16.94-2.51,3.44-2.91,9.9s-4-1.95-5.21-5.11a17.66,17.66,0,0,1-.67-2.1l-2.78-10.56a2.91,2.91,0,0,0-3.3,3.18l0,.54a3.37,3.37,0,0,1-2.69,3.46h0l-.44.13c-.91.39-1.14,1-1.36,2l-.21.86a1.55,1.55,0,0,1-.46.79,3.83,3.83,0,0,0-1.21,3.16l.17,2.42a1.19,1.19,0,0,1-.18.72,4,4,0,0,0-.6,2.77l3.8,15.11a5.49,5.49,0,0,1,.07,2.42l-10.13,63a14.29,14.29,0,0,0,.51,7.64l13.64,45,19.38-12.72Z"></path><path class="cls-10" d="M265.46,298.79a18.23,18.23,0,0,1-10.41-5.21v3c0,3.05,5.84,5.52,13.05,5.52,4.19,0,8.33-1.33,10.75-3.23a8.09,8.09,0,0,0,1.08-1h0v-3.15A18.69,18.69,0,0,1,265.46,298.79Z"></path><path class="cls-9" d="M338.69,377.92l-11.94-42.53-24.83,8,11.38,30.79c6.9,19.92,17.62,19,17.62,19l.26,0C338.71,391.18,339.38,381.8,338.69,377.92Z"></path><path class="cls-11" d="M336.45,365.16c-.21-1.86-3-10.24-8.52-29.05-3.39-11.47-7.81-18.05-13.78-22.89l-9.75,43,3.38,9Z"></path><path class="cls-2" d="M336.15,368.12l-28,0,.37-3.46,27.85,0,.47,2.61A.73.73,0,0,1,336.15,368.12Z"></path><path class="cls-6" d="M305.05,307.85,278.13,298c-1.05,5.73-3.67,8.43-9.7,8.43h-1.8a12.31,12.31,0,0,1-12.31-12.31V294c-.2-.26-.47-.59-.77-1l-5.2-.41-.46,0-.44-.08a17.69,17.69,0,0,1-6-1.93h-.2a18.57,18.57,0,0,0-18.33,15.61l-4,24.82,16,75.41,68.87-.14,10.67-92.76C312.52,311.19,307.77,308.84,305.05,307.85Z"></path><path class="cls-9" d="M279.93,297.88a18.69,18.69,0,0,1-14.47,4,18.23,18.23,0,0,1-10.41-5.21h0l0,0-.22-.23-.21-.24-.27-.34V296a12.31,12.31,0,0,0,12.31,12.31h1.8a12.31,12.31,0,0,0,12.1-10.07,9,9,0,0,0,.15-1.06Q280.37,297.52,279.93,297.88Z"></path><path class="cls-12" d="M288.13,259.55s-7.32-17-19.58-16.85c-11.86.09-14.59,15.06-14.59,15.06s-7.24,5.27-8,16.58c-.6,8.73,5.12,17.43,7.76,21,.32.42.59.77.81,1l.28.35.21.25.23.23,0,0h0a18.9,18.9,0,0,0,10.78,5.4,19.33,19.33,0,0,0,15-4.18c.3-.25.56-.48.78-.68a12.36,12.36,0,0,0,.88-.89C298.68,279.69,288.13,259.55,288.13,259.55Z"></path><polygon class="cls-11" points="217.86 325.46 218.11 326.35 218.25 325.46 217.86 325.46"></polygon><path class="cls-11" d="M238.51,288.09a21.88,21.88,0,0,1-3.12-5l-12-22-1.49-.12c-8,.28-13.58,7-16.58,9.49,0,.31-.7-1.05-.7-.73l-1.16,1.4L218.3,328.8l.61,2.16.35-2.16,3.64-22.66a18.57,18.57,0,0,1,18.33-15.61h.2A11.57,11.57,0,0,1,238.51,288.09Z"></path><path class="cls-2" d="M223.8,261.83l-20.17,9.85a.21.21,0,0,1-.3-.13l-.36-1.32a2,2,0,0,1,1.06-2.35l18.34-9a.35.35,0,0,1,.46.16l1.13,2.31A.35.35,0,0,1,223.8,261.83Z"></path></g></svg> 